<?xml version="1.0" ?><svg style="enable-background:new 0 0 48 48;" version="1.1" viewBox="0 0 48 48" xml:space="preserve" xmlns="http://www.w3.org/2000/svg" xmlns:xlink="http://www.w3.org/1999/xlink"><g id="Padding__x26__Artboard"/><g id="Icons"><g><g><circle cx="24" cy="24" r="15.34377" style="fill:#FFFFFF;"/></g><g><circle cx="23.06281" cy="24.93719" r="13.9933" style="fill:#B9D4F8;"/></g><polygon points="30.82775,17.17225 25.70271,25.70271 17.17225,30.82775 22.3,22.3   " style="fill:#B9D4F8;"/><path d="M17.41551,30.41881c0.11005,0.09003,0.19,0.15002,0.19,0.15002l-0.42999,0.26001L17.41551,30.41881    z" style="fill:#659BDB;"/><polygon points="30.45555,17.77879 25.70555,25.69884 17.60551,30.56883 23.27556,23.44884     30.12553,17.98881   " style="fill:#659BDB;"/><circle cx="24" cy="24" r="15.34377" style="fill:none;stroke:#1B4A9A;stroke-width:0.7;stroke-linecap:round;stroke-linejoin:round;stroke-miterlimit:10;"/><g><path d="     M21.68036,11.5037c0.53679-0.0955,1.07644-0.1576,1.61342-0.18429" style="fill:none;stroke:#1B4A9A;stroke-width:0.7;stroke-linecap:round;stroke-linejoin:round;stroke-miterlimit:10;"/><path d="     M15.25549,14.69248c1.44125-1.2413,3.22635-2.35482,5.10565-2.8855" style="fill:none;stroke:#1B4A9A;stroke-width:0.7;stroke-linecap:round;stroke-linejoin:round;stroke-miterlimit:10;"/></g><polygon points="    30.82775,17.17225 25.70271,25.70271 17.17225,30.82775 22.3,22.3   " style="fill:none;stroke:#1B4A9A;stroke-width:0.7;stroke-linecap:round;stroke-linejoin:round;stroke-miterlimit:10;"/></g></g></svg>