<?xml version="1.0" ?><!DOCTYPE svg  PUBLIC '-//W3C//DTD SVG 1.1//EN'  'http://www.w3.org/Graphics/SVG/1.1/DTD/svg11.dtd'><svg enable-background="new 0 0 128 128" height="128px" id="Layer_1" version="1.1" viewBox="0 0 128 128" width="128px" xml:space="preserve" xmlns="http://www.w3.org/2000/svg" xmlns:xlink="http://www.w3.org/1999/xlink"><g><path d="M110.024,56.113c-1.026-8.429-6.402-15.668-13.895-19.245c-2.855-10.775-12.601-18.288-23.777-18.288   c-8.356,0-16.07,4.186-20.634,11.198c-0.054,0.083-0.079,0.175-0.105,0.266c-1.481-0.596-3.022-1.054-4.617-1.357   c-13.33-2.534-26.233,6.251-28.765,19.58c-1.227,6.457,0.134,13.005,3.832,18.438c3.698,5.434,9.291,9.1,15.748,10.326   c1.533,0.293,3.076,0.439,4.616,0.439c1.344,0,2.687-0.111,4.019-0.334c0.544-0.092,0.912-0.607,0.821-1.152   c-0.09-0.543-0.604-0.91-1.151-0.82c-2.625,0.439-5.294,0.406-7.931-0.098c-5.933-1.125-11.071-4.496-14.468-9.486   c-3.397-4.992-4.648-11.008-3.521-16.94c2.327-12.246,14.186-20.314,26.427-17.988c2.832,0.539,5.488,1.586,7.896,3.113   c0.467,0.296,1.084,0.158,1.38-0.309s0.158-1.084-0.309-1.38c-0.708-0.449-1.438-0.853-2.183-1.225   c4.195-6.431,11.276-10.271,18.946-10.271c9.741,0,18.298,6.21,21.392,15.298c-0.753-0.266-1.517-0.508-2.302-0.701   c-0.539-0.131-1.078,0.196-1.209,0.733c-0.131,0.537,0.197,1.078,0.733,1.209c9.081,2.223,15.942,9.953,17.072,19.234   c0.729,5.995-0.918,11.915-4.64,16.669c-3.723,4.752-9.074,7.773-15.068,8.502c-0.549,0.068-0.939,0.566-0.872,1.113   c0.062,0.508,0.493,0.881,0.991,0.881c0.041,0,0.081-0.004,0.122-0.008c6.525-0.795,12.351-4.082,16.401-9.256   C109.024,69.08,110.819,62.638,110.024,56.113z" fill="#2BACE2"/><path d="M64.729,49.726c-0.201-0.201-0.466-0.294-0.729-0.289c-0.137-0.003-0.274,0.02-0.403,0.073   c-0.122,0.051-0.233,0.124-0.325,0.216L48.406,64.593c-0.391,0.391-0.391,1.024,0,1.415c0.195,0.195,0.451,0.293,0.707,0.293   s0.512-0.098,0.707-0.293l13.16-13.161v55.573c0,0.553,0.448,1,1,1c0.553,0,1-0.447,1-1V52.805l13.202,13.203   c0.195,0.195,0.451,0.293,0.707,0.293s0.512-0.098,0.707-0.293c0.391-0.391,0.391-1.024,0-1.415L64.729,49.726z" fill="#2BACE2"/></g></svg>