<?xml version="1.0" ?><!DOCTYPE svg  PUBLIC '-//W3C//DTD SVG 1.1//EN'  'http://www.w3.org/Graphics/SVG/1.1/DTD/svg11.dtd'><svg height="6.82666in" style="shape-rendering:geometricPrecision; text-rendering:geometricPrecision; image-rendering:optimizeQuality; fill-rule:evenodd; clip-rule:evenodd" viewBox="0 0 6.82666 6.82666" width="6.82666in" xml:space="preserve" xmlns="http://www.w3.org/2000/svg" xmlns:xlink="http://www.w3.org/1999/xlink"><defs><style type="text/css">
   <![CDATA[
    .fil2 {fill:none}
    .fil1 {fill:#C2E4F8}
    .fil0 {fill:#0A93E2;fill-rule:nonzero}
   ]]>
  </style></defs><g id="Layer_x0020_1"><path class="fil0" d="M1.90291 2.74332l3.02084 0c0.117819,0 0.213335,0.0955157 0.213335,0.213335l0 2.80334c0,0.117819 -0.0955157,0.213335 -0.213335,0.213335l-3.02084 0c-0.117819,0 -0.213335,-0.0955157 -0.213335,-0.213335l0 -2.80334c0,-0.117819 0.0955157,-0.213335 0.213335,-0.213335zm2.80751 0.426669l-2.59417 0 0 2.37667 2.59417 0 0 -2.37667z"/><path class="fil0" d="M3.56541 0.917075l1.88875 1.88875 1.5748e-005 -1.5748e-005c0.083311,0.083311 0.083311,0.21839 0,0.301701 -0.0416535,0.0416535 -0.096252,0.0624843 -0.15085,0.0624843l-3.77998 0c-0.117819,0 -0.213335,-0.0955157 -0.213335,-0.213335 0,-0.0595787 0.0244331,-0.113441 0.063815,-0.15215l1.88867 -1.88868 -1.5748e-005 -1.5748e-005c0.083311,-0.083311 0.21839,-0.083311 0.301701,0l0.00122835 0.00125984zm1.22291 1.82625l-1.37499 -1.37499 -1.37498 1.37499 2.74998 0z"/><polygon class="fil1" points="4.78832,2.74332 3.41333,1.36833 2.03834,2.74332 "/><polygon class="fil1" points="4.71042,3.16999 2.11624,3.16999 2.11624,5.54666 4.71042,5.54666 "/></g><rect class="fil2" height="6.82666" width="6.82666"/></svg>