<?xml version="1.0" encoding="iso-8859-1"?>
<!-- Uploaded to: SVG Repo, www.svgrepo.com, Generator: SVG Repo Mixer Tools -->
<svg height="800px" width="800px" version="1.1" id="Layer_1" xmlns="http://www.w3.org/2000/svg" xmlns:xlink="http://www.w3.org/1999/xlink" 
	 viewBox="0 0 508 508" xml:space="preserve">
<path style="fill:#FFFFFF;" d="M479.8,155.006c0-69.9-52.3-126.8-116.5-126.8c-47.2,0-79,14.6-97.2,44.6l0,0c-5.5,9-18.6,9-24.1,0
	l0,0c-18.2-30-50-44.6-97.2-44.6c-64.3,0-116.6,56.9-116.6,126.8c0,103.3,181.8,278.8,225.7,319.7
	C297.8,433.306,479.8,255.506,479.8,155.006z"/>
<path style="fill:#194F82;" d="M363.3,0.006c-48.3,0-85,14-109.3,41.7c-24.3-27.7-61-41.7-109.3-41.7c-79.8,0-144.7,69.5-144.7,155
	c0,129.5,234.6,340.5,244.6,349.4c5.4,4.8,13.5,4.8,18.9-0.1l0,0c10-9,244.5-223.2,244.5-349.3C508,69.506,443.1,0.006,363.3,0.006z
	 M28.2,155.006c0-69.9,52.3-126.8,116.5-126.8c47.2,0,79,14.6,97.2,44.6l0,0c5.5,9,18.6,9,24.1,0l0,0c18.2-30,50-44.6,97.2-44.6
	c64.2,0,116.5,56.9,116.5,126.8c0,100.5-182,278.3-225.8,319.7C210,433.806,28.2,258.306,28.2,155.006z"/>
<path style="fill:#56ACE0;" d="M363.3,56.406c-48.6,0-65,17.7-73.1,31c-16.5,27.1-55.9,27.1-72.3,0c-8.1-13.3-24.5-31-73.1-31
	c-48.7,0-88.3,44.2-88.3,98.5c0,69,111.4,198.7,197.4,281c90-87.3,197.7-217.2,197.7-281C451.6,100.706,411.9,56.406,363.3,56.406z"
	/>
<path style="fill:#194F82;" d="M363.3,56.406c-7.8,0-14.1,6.3-14.1,14.1s6.3,14.1,14.1,14.1c33.1,0,60.1,31.5,60.1,70.3
	c0,7.8,6.3,14.1,14.1,14.1c7.8,0,14.1-6.3,14.1-14.1C451.6,100.706,411.9,56.406,363.3,56.406z"/>
</svg>