<?xml version="1.0" ?><svg data-name="Layer 1" id="Layer_1" viewBox="0 0 64 64" xmlns="http://www.w3.org/2000/svg"><defs><style>.cls-1{fill:none;stroke:#078cd6;stroke-linecap:round;stroke-linejoin:round;stroke-width:2px;}</style></defs><title/><path class="cls-1" d="M38.15,21.7C38.15,25.09,35.39,31,32,31s-6.15-5.92-6.15-9.32a6.15,6.15,0,0,1,12.29,0Z"/><path class="cls-1" d="M19.34,48.3a12.66,12.66,0,0,1,25.32,0"/><path class="cls-1" d="M53.49,25.77c0,2.87-2.33,8-5.2,8s-5.2-5.17-5.2-8a5.2,5.2,0,0,1,10.41,0Z"/><path class="cls-1" d="M41.81,39.9A10.72,10.72,0,0,1,59,48.45"/><path class="cls-1" d="M10.51,25.77c0,2.87,2.33,8,5.2,8s5.2-5.17,5.2-8a5.2,5.2,0,0,0-10.41,0Z"/><path class="cls-1" d="M22.19,39.9A10.72,10.72,0,0,0,5,48.45"/></svg>